<svg width="79" height="19" viewBox="0 0 79 19" fill="none" xmlns="http://www.w3.org/2000/svg">
<path d="M12.4179 10.0709C12.3934 8.52461 13.0512 7.32141 14.3903 6.46098C13.6356 5.34623 12.522 4.71926 11.049 4.57985C10.5252 4.52924 9.8556 4.65511 9.04047 4.95996C8.16284 5.28932 7.66969 5.45311 7.56016 5.45311C7.32857 5.45311 6.88445 5.31462 6.22658 5.03501C5.56972 4.75732 5.00969 4.61791 4.54636 4.61791C3.76743 4.62973 3.04283 4.84864 2.37407 5.27305C1.7038 5.69739 1.16901 6.27734 0.767248 7.0119C0.255176 7.92394 0 9.01417 0 10.2791C0 11.4189 0.188156 12.559 0.565473 13.6999C0.918347 14.7892 1.36892 15.7466 1.91626 16.5679C2.4031 17.3161 2.83016 17.8608 3.19479 18.2038C3.71869 18.7348 4.25327 18.9891 4.80247 18.9627C5.15534 18.9501 5.61674 18.818 6.18952 18.5639C6.72518 18.3231 7.26076 18.2046 7.79641 18.2046C8.2958 18.2046 8.81325 18.3241 9.3489 18.5639C9.94512 18.818 10.4328 18.944 10.8091 18.944C11.3692 18.9194 11.8931 18.6716 12.3798 18.2046C12.5499 18.0517 12.7363 17.8428 12.9363 17.5769C13.1372 17.3116 13.3588 16.9941 13.603 16.6267C13.7732 16.3607 13.9406 16.0767 14.1052 15.7728C14.2699 15.4678 14.4183 15.1458 14.5531 14.8027C14.6138 14.6635 14.6681 14.5215 14.7168 14.3758C14.7657 14.2301 14.8145 14.0817 14.8634 13.9295C14.4129 13.727 14.0048 13.4421 13.6402 13.0747C12.8376 12.2622 12.4296 11.2614 12.4179 10.0709Z" fill="black"/>
<path d="M18.9502 18.7348H21.488V9.74597H21.6057L24.7054 16.8847H26.4851L29.5748 9.74597H29.6923V18.7348H32.2601V4.85583H29.3676L25.6591 13.4584H25.5703L21.8626 4.85583H18.9502V18.7348Z" fill="black"/>
<path d="M10.1162 3.03996C10.7622 2.21767 11.0843 1.33 11.0843 0.38004C11.0843 0.316748 11.0843 0.252524 11.0843 0.19002C11.0843 0.127516 11.078 0.0633639 11.0663 0C10.6147 0.0253026 10.1379 0.171025 9.63217 0.436093C9.12734 0.703024 8.71024 1.03877 8.38181 1.44311C7.72408 2.24196 7.39551 3.09702 7.39551 4.00891C7.39551 4.07242 7.39551 4.13292 7.39551 4.18911C7.39551 4.24603 7.40196 4.30667 7.41371 4.3691C8.42431 4.47232 9.32553 4.02798 10.1162 3.03996Z" fill="black"/>
<path d="M61.9238 4.85583H64.7764V18.7348H61.9238V4.85583Z" fill="black"/>
<path d="M73.3918 7.0627C75.0839 7.0627 75.9788 8.38538 75.9788 9.8077H78.7137V9.51275C78.7137 6.82917 76.6971 4.59265 73.372 4.59265C69.81 4.59265 67.6855 6.97217 67.6855 11.029V12.5941C67.6855 16.6504 69.791 19.0001 73.3622 19.0001C76.7756 19.0001 78.7137 16.7326 78.7137 14.2111V13.9051H75.9788C75.9788 15.3394 75.1029 16.5281 73.4118 16.5281C71.6801 16.5281 70.5782 15.2779 70.5782 12.6023V11.0382C70.5782 8.37456 71.6902 7.0627 73.392 7.0627H73.3918Z" fill="black"/>
<path d="M43.1706 13.6212C43.1706 15.4823 42.0987 16.5081 40.5242 16.5081C38.941 16.5081 37.868 15.4912 37.868 13.6212V4.85583H35.0352V14.0274C35.0352 16.9869 37.1008 19 40.5242 19C43.9379 19 46.0134 16.9869 46.0134 14.0274V4.85583H43.1706V13.6212Z" fill="black"/>
<path d="M55.4515 10.6517L53.4157 10.183C52.2161 9.92891 51.5864 9.38967 51.5864 8.58629C51.5864 7.5195 52.4422 6.84816 53.8202 6.84816C55.3737 6.84816 56.1508 7.75296 56.2197 8.72922H58.876C58.8462 6.27817 56.8294 4.57007 53.8294 4.57007C50.9866 4.57007 48.7436 6.0855 48.7436 8.80979C48.7436 11.1683 50.3171 12.2667 52.2062 12.6848L54.2227 13.1616C55.5799 13.4774 56.2686 13.935 56.2686 14.8788C56.2686 15.9572 55.4226 16.6901 53.8392 16.6901C52.1373 16.6901 51.2417 15.7745 51.1629 14.7475H48.4277C48.4678 16.7099 49.7469 18.9983 53.7017 18.9983C57.0267 18.9983 59.0823 17.3208 59.0823 14.5946C59.0815 12.0748 57.4184 11.0888 55.4515 10.6517Z" fill="black"/>
</svg>
