<svg width="45" height="27" viewBox="0 0 45 27" fill="none" xmlns="http://www.w3.org/2000/svg">
<path fill-rule="evenodd" clip-rule="evenodd" d="M14.095 0.65403C14.095 1.22529 14.3596 1.96803 14.5429 2.51185C14.7345 3.07976 14.869 3.66128 15.0504 4.20251C15.1437 4.48134 15.2067 4.72928 15.3041 5.02095L17.5932 12.5971C17.6667 12.8572 17.7696 13.17 17.8812 13.3812C18.152 13.8943 18.9732 13.7465 19.8165 13.7465C20.783 13.7465 20.7319 13.2411 20.9497 12.3615C21.0024 12.1483 21.0646 11.9256 21.1211 11.6752L22.245 6.90059C22.3008 6.64131 22.3765 6.44866 22.4239 6.22156L22.9907 3.78568C23.0436 3.53698 22.9807 3.6089 23.1317 3.49778L23.4334 4.85843C23.8995 6.43808 24.5628 9.62685 25.0458 11.5572C25.1595 12.0113 25.2634 12.4767 25.3665 12.8989C25.6194 13.9349 25.8285 13.7465 27.5697 13.7465C28.3653 13.7465 28.367 13.3232 28.6197 12.5464L31.8942 1.98865C32.4532 0.156098 32.4714 0.38568 30.3502 0.38568C29.7484 0.38568 29.6312 0.793551 29.5006 1.25012L26.9815 11.0636C26.9744 11.0524 26.966 11.0204 26.9636 11.0279L26.8777 10.7385C26.8468 10.5854 26.8397 10.5462 26.8 10.3873L24.9928 2.70332C24.8842 2.26456 24.7793 1.79741 24.6611 1.31913C24.3839 0.196702 24.2342 0.385788 22.4899 0.385788C21.5382 0.385788 21.6205 1.18155 21.2703 2.59609L19.9656 8.15498C19.8582 8.6122 19.7447 9.06078 19.6426 9.54791C19.5973 9.764 19.5312 9.98516 19.4742 10.2375C19.4243 10.4581 19.3396 10.7499 19.335 10.9564C19.3279 10.9452 19.3202 10.9126 19.3177 10.9201C19.3154 10.9277 19.3043 10.8916 19.301 10.8832L17.2069 2.68226C17.1451 2.43454 17.0944 2.23605 17.029 2.00237C16.5205 0.18979 16.9631 0.385788 14.3622 0.385788C14.2375 0.385788 14.0947 0.52898 14.0947 0.654138L14.095 0.65403Z" fill="#1A1A1A"/>
<path fill-rule="evenodd" clip-rule="evenodd" d="M21.5793 26.9999C23.2864 26.9999 24.478 27.0123 26.188 26.7953C29.5933 26.363 33.5335 25.3873 36.5693 23.8518C37.7888 23.2351 38.9901 22.6453 40.1116 21.8261C40.3592 21.6453 40.8364 21.3717 40.9541 21.114C41.1408 20.7052 40.8975 20.1854 40.4549 20.1854C39.9028 20.1854 39.9152 20.2605 39.2942 20.523L36.5048 21.5337C34.6995 22.1395 31.192 23.0208 29.4312 23.2351C26.3949 23.6048 25.5523 23.7268 22.2745 23.7268C21.3631 23.7268 20.6027 23.6393 19.8139 23.6205C18.7611 23.5954 15.4406 23.1293 14.427 22.9091L12.2746 22.4398C8.05045 21.4147 4.78746 20.0309 1.04616 17.9854C0.870374 17.8893 0.659518 17.7172 0.404554 17.7172C0.0813848 17.7172 -0.0500775 17.9703 0.0170522 18.2095C0.0987051 18.5008 0.422843 18.7045 0.712877 18.9639C1.49068 19.6592 2.92525 20.7449 3.7733 21.3122C5.89617 22.7326 7.77537 23.7519 10.1359 24.6932C12.9128 25.8006 16.6691 26.7429 19.7069 26.8935C20.3248 26.9242 20.8836 26.9999 21.5793 26.9999Z" fill="#1A1A1A"/>
<path fill-rule="evenodd" clip-rule="evenodd" d="M6.60853 12.0832C5.45044 12.0832 4.5231 11.4028 4.5231 10.2052C4.5231 9.4495 4.53128 8.92263 5.12307 8.33896C6.46287 7.01729 9.62937 7.9515 10.1911 7.9515C10.1911 9.36106 10.2914 10.3012 9.1387 11.2417C8.483 11.7765 7.49832 12.0832 6.60864 12.0832H6.60853ZM2.705 1.99553C2.705 3.5309 2.92705 3.10187 4.59593 2.55167C5.69443 2.18948 7.40075 1.95655 8.51269 2.28461C8.91977 2.40481 9.25413 2.57111 9.51124 2.8387C10.272 3.63014 10.191 5.05526 10.191 6.23449C9.75082 6.22466 8.47332 5.80513 6.87576 5.80513C3.16351 5.80513 1.0301 8.41163 2.13559 11.7423C2.61302 13.1802 4.21994 14.0685 5.75284 14.0685C7.20312 14.0685 7.98964 13.8712 9.11901 13.1536C9.69079 12.7902 10.1777 12.144 10.4049 12.0831C10.4642 12.3385 11.2269 13.8 11.7952 13.8C12.0256 13.8 12.1694 13.7123 12.338 13.5937C12.4809 13.493 12.6071 13.4091 12.7503 13.3098C13.738 12.6234 13.5369 12.7557 13.1162 11.7768C12.6088 10.596 12.7041 10.179 12.7041 8.70255L12.6432 4.14913C12.5332 3.10392 12.2688 2.21853 11.623 1.47049C9.83054 -0.605898 5.58857 -0.180858 3.36361 0.939301C2.88789 1.17882 2.7049 1.30041 2.7049 1.99531L2.705 1.99553Z" fill="#1A1A1A"/>
<path fill-rule="evenodd" clip-rule="evenodd" d="M33.3959 3.71239C33.3959 4.56474 33.4714 5.09798 33.9196 5.81621C34.7073 7.07913 35.9169 7.51799 37.3304 7.92025L38.9909 8.45392C40.0641 8.81644 40.7908 9.31869 40.5485 10.6213C40.5216 10.7657 40.4652 10.8633 40.3862 10.9951C40.2422 11.2355 40.0682 11.412 39.8366 11.5706C38.7634 12.305 36.5513 12.0393 35.385 11.7504C34.4678 11.523 33.2355 10.6946 33.2355 11.5464C33.2355 12.7294 33.1044 12.8528 33.8459 13.2948C34.5839 13.7347 36.4248 14.122 37.3529 14.122C38.7035 14.122 39.7634 14.0593 40.9865 13.4219C43.2191 12.2584 43.8759 9.20023 42.179 7.50827C41.3888 6.72039 40.4723 6.45345 39.4315 6.1338L37.5436 5.50618C37.3396 5.42346 37.1455 5.3618 36.9801 5.26677C36.6057 5.05155 36.2962 4.89011 36.0851 4.50156C35.5572 3.52946 36.0853 2.39904 37.512 2.15499C40.8897 1.57725 42.3794 3.72967 42.3794 2.31729C42.3794 1.53157 42.477 1.21279 41.9381 0.828464C41.68 0.644453 41.3611 0.516271 41.0129 0.415411C39.0792 -0.144723 36.5072 -0.320311 34.827 1.07036C34.0297 1.73038 33.396 2.57344 33.396 3.71239H33.3959Z" fill="#1A1A1A"/>
<path fill-rule="evenodd" clip-rule="evenodd" d="M36.498 18.6829L36.5706 18.7712C36.577 18.778 36.589 18.7918 36.5962 18.799C36.6461 18.849 36.6426 18.8975 36.7119 18.8975C37.3391 18.8975 37.8492 18.7699 38.475 18.735C39.3677 18.6852 41.3222 18.4786 42.2141 18.7957C42.6073 18.9355 42.8613 19.1848 42.8613 19.6487C42.8613 22.078 40.7136 25.1754 41.578 25.1754C42.3899 25.1754 43.6751 23.046 44.0906 22.1163C44.5621 21.061 45.2846 18.5751 44.8832 17.566C44.6392 16.9525 42.6481 16.8048 41.7385 16.8048C40.6293 16.8048 39.5228 17.0279 38.6779 17.2751C38.1736 17.4226 37.3093 17.8365 36.8708 18.1445C36.6778 18.28 36.5598 18.4177 36.4983 18.6828L36.498 18.6829Z" fill="#1A1A1A"/>
</svg>
