<svg width="90" height="20" viewBox="0 0 90 20" fill="none" xmlns="http://www.w3.org/2000/svg">
<path d="M85.5422 10.8017C85.374 11.3924 85.2899 11.8987 85.1217 12.2363L85.0375 12.4051C84.9534 12.827 84.617 13.0802 84.1964 13.0802H83.9441C83.7759 13.0802 83.6076 12.9958 83.4394 12.827C83.3553 12.6582 83.2712 12.4895 83.2712 12.3207L83.5235 10.6329C83.5235 10.5485 83.6076 10.3797 83.6917 10.2954C81.2525 9.70464 79.4861 7.51055 79.4861 4.89452C79.4861 4.47257 79.5702 4.13502 79.5702 3.71308H72.673C72.2525 3.71308 71.916 3.45992 71.8319 3.03797L71.4955 1.60338C71.3272 1.09705 70.9067 0.675106 70.3179 0.675106H68.2992C67.8786 0.675106 67.6263 1.01266 67.6263 1.35021C67.6263 1.77215 67.9627 2.02532 68.2992 2.02532H69.3927C69.8132 2.02532 70.1497 2.27848 70.2338 2.70042L72.9254 13.6709C73.0936 14.1772 73.5142 14.5992 74.1029 14.5992H85.1217C85.7104 14.5992 86.131 14.2616 86.2992 13.6709L87.2245 9.95781C86.6357 10.211 86.0469 10.2954 85.4581 10.3797C85.6263 10.6329 85.6263 10.7173 85.5422 10.8017ZM73.1777 7.76371C73.0936 7.34177 72.9254 6.91983 72.8413 6.58228L72.7571 6.24473C72.673 6.07595 72.7571 5.90717 72.8413 5.7384C72.9254 5.56962 73.1777 5.48523 73.3459 5.48523H74.1029C74.5235 5.48523 74.8599 5.7384 74.8599 6.16034L75.1123 7.67933C75.1123 7.8481 75.1123 8.01688 74.9441 8.18565C74.8599 8.35443 74.6076 8.43882 74.4394 8.43882H74.0188C73.5983 8.35443 73.2618 8.10127 73.1777 7.76371ZM75.7852 12.827C75.7011 12.9958 75.4487 13.0802 75.2805 13.0802H75.1964C74.7758 13.0802 74.4394 12.827 74.3553 12.4051L74.2712 12.2363C74.1871 11.8143 74.0188 11.308 73.8506 10.7173C73.7665 10.5485 73.8506 10.3797 73.9347 10.211C74.0188 10.0422 74.2712 9.95781 74.4394 9.95781H74.8599C75.2805 9.95781 75.617 10.211 75.7011 10.6329L75.9534 12.3207C75.9534 12.4895 75.9534 12.7426 75.7852 12.827ZM78.8973 12.4895C78.8973 12.827 78.645 13.0802 78.3086 13.0802C77.9721 13.0802 77.6357 12.827 77.6357 12.4895L77.3833 10.7173C77.3833 10.5485 77.3833 10.3797 77.5515 10.211C77.6357 10.0422 77.888 9.95781 78.0562 9.95781H78.3086C78.7291 9.95781 79.0656 10.2954 79.0656 10.7173V12.4895H78.8973ZM78.8973 7.67933C78.8973 8.10127 78.5609 8.43882 78.1403 8.43882H77.5515C77.131 8.43882 76.7945 8.18565 76.7104 7.76371L76.5422 6.16034C76.5422 5.99156 76.5422 5.82278 76.7104 5.65401C76.8786 5.48523 77.0469 5.40084 77.2151 5.40084H78.2244C78.645 5.40084 78.8973 5.7384 78.8973 6.16034V7.67933ZM82.0936 10.7173L81.8413 12.4895C81.7572 12.827 81.5048 13.0802 81.1684 13.0802C80.8319 13.0802 80.5796 12.827 80.5796 12.4895V10.7173C80.5796 10.2954 80.916 9.95781 81.3366 9.95781H81.5889C81.7572 9.95781 81.9254 10.0422 82.0936 10.211C82.0936 10.3797 82.0936 10.5485 82.0936 10.7173Z" fill="#0F0E0E"/>
<path fill-rule="evenodd" clip-rule="evenodd" d="M80.5794 4.72574C80.5794 2.1097 82.6822 0 85.2897 0C87.8972 0 90 2.02532 90 4.72574C90 7.34177 87.8972 9.45148 85.2897 9.45148C82.6822 9.45148 80.5794 7.34177 80.5794 4.72574ZM86.4678 3.03802L85.2902 0.675147L84.1126 3.03802L81.5051 3.45996L83.3556 5.3165L82.9351 7.93253L85.2902 6.7511L87.6453 7.93253L87.2248 5.3165L89.1594 3.45996L86.4678 3.03802Z" fill="#0F0E0E"/>
<path d="M74.8599 20C75.9748 20 76.8786 19.0555 76.8786 17.8903C76.8786 16.7251 75.9748 15.7806 74.8599 15.7806C73.7451 15.7806 72.8413 16.7251 72.8413 17.8903C72.8413 19.0555 73.7451 20 74.8599 20Z" fill="#0F0E0E"/>
<path d="M84.617 20C85.7319 20 86.6357 19.0555 86.6357 17.8903C86.6357 16.7251 85.7319 15.7806 84.617 15.7806C83.5021 15.7806 82.5983 16.7251 82.5983 17.8903C82.5983 19.0555 83.5021 20 84.617 20Z" fill="#0F0E0E"/>
<path d="M22.8785 15.865C21.9533 16.5401 20.5234 16.7932 18.5888 16.7932H15.8131C15.3926 16.7932 15.0561 16.7932 14.5514 16.7932C14.1309 16.7932 13.7103 16.7089 13.2897 16.6245C12.8692 16.5401 12.4486 16.3713 12.1122 16.2869C11.6916 16.1181 11.3552 15.865 11.1028 15.6118C10.8505 15.3586 10.5982 14.9367 10.4299 14.5148C10.2617 14.0928 10.1776 13.5865 10.1776 12.9114V3.29114H12.701V12.827C12.701 13.8397 13.6262 14.346 15.5608 14.346H19.0094C20.8599 14.346 21.7851 13.8397 21.7851 12.827V3.29114H24.3085V12.9958C24.2243 14.2616 23.8038 15.2743 22.8785 15.865Z" fill="#0F0E0E"/>
<path d="M43.3178 16.962V8.10127L37.8505 16.2025C37.6823 16.4557 37.43 16.7089 37.1776 16.8776C36.9253 17.0464 36.673 17.1308 36.3365 17.1308C35.7477 17.1308 35.2431 16.8776 34.8225 16.2869L29.3552 8.01688V16.962H26.8318V4.72574C26.8318 4.21941 27.0001 3.88186 27.2524 3.62869C27.5047 3.37553 27.8412 3.20675 28.2617 3.20675C28.8505 3.20675 29.3552 3.45992 29.6916 3.88186L36.5047 13.6709L43.2337 3.96624C43.5702 3.45992 43.9907 3.20675 44.5795 3.20675C45.0001 3.20675 45.3365 3.37553 45.5889 3.62869C45.8412 3.88186 46.0094 4.3038 46.0094 4.81013V16.8776H43.3178V16.962Z" fill="#0F0E0E"/>
<path d="M48.3646 16.8776V3.29114H50.8879V16.8776H48.3646Z" fill="#0F0E0E"/>
<path d="M68.0469 16.962L65.944 13.2489H58.0375L56.0188 16.962H52.9908L60.5609 4.21941C60.8973 3.62869 61.402 3.29114 61.9908 3.29114C62.5796 3.29114 63.0842 3.62869 63.4207 4.21941L70.8226 16.962H68.0469ZM61.9908 6.66667L59.5515 10.7173H64.43L61.9908 6.66667Z" fill="#0F0E0E"/>
<path d="M7.65422 10.8017C7.65422 14.9367 6.1402 16.7089 3.4486 17.2996C0.841123 17.8059 0 17.8059 0 17.8059V15.0211C1.00935 14.9367 2.60748 14.7679 3.61683 14.4304C4.54206 14.0928 5.21496 13.1646 5.21496 10.8017L5.29908 5.82278V3.29114H7.82244L7.65422 10.8017Z" fill="#0F0E0E"/>
</svg>
