<svg width="73" height="18" viewBox="0 0 73 18" fill="none" xmlns="http://www.w3.org/2000/svg">
<path d="M56.3614 16.3479C57.3731 16.4169 58.4226 16.5202 59.3969 16.5551V0.0346042H56.3614V16.3479ZM6.89515 10.1874L2.92327 0.000375914H0V18C1.01176 17.8968 2.06079 17.7245 3.03528 17.6216V7.81259L6.59537 17.2432C7.71975 17.14 8.80646 17.036 9.93063 16.9337V0.000375914H6.89515V10.1874ZM12.9663 16.6576C15.777 16.4515 18.6621 16.2102 21.5105 16.0729V13.2851C19.6741 13.3884 17.8756 13.492 16.0393 13.5951V9.39606C17.2007 9.39606 18.8122 9.32741 20.1987 9.32741V6.53961C19.0746 6.53961 17.3131 6.53961 16.0393 6.60825V2.82241H21.5105V0.0346042H12.9663V16.6576ZM23.4588 2.82241H26.6817V15.7974C27.6934 15.7288 28.7429 15.7288 29.7172 15.6942V2.75339H32.9398V0H23.4586V2.82241H23.4588ZM34.9263 15.6942H37.9615V9.22379H42.1589V6.47059H37.9994V2.8226H43.5077V0.0347921H34.9258L34.9263 15.6942ZM73 0.000375914H69.5902L67.3789 4.75003L65.3929 0.000375914H62.0201L65.5804 8.46685L61.6831 16.7612C62.7321 16.8645 63.8567 16.9681 64.9057 17.0708L67.1913 12.2179L69.403 17.5526C70.5645 17.7241 71.7634 17.8274 72.9249 17.9996C72.9249 17.9996 70.3165 11.628 68.9902 8.53531L73 0.000375914ZM48.5294 0.000375914H45.4939V15.7974C48.3048 15.9011 51.0779 16.0043 53.813 16.1766V13.3884C52.0516 13.2851 50.2908 13.1823 48.5294 13.1133V0.000375914Z" fill="black"/>
</svg>
