<svg width="89" height="12" viewBox="0 0 89 12" fill="none" xmlns="http://www.w3.org/2000/svg">
<path fill-rule="evenodd" clip-rule="evenodd" d="M66.3292 3.25703C66.3292 4.10721 67.2882 5.32437 68.6834 3.66959C68.9085 3.4027 70.2157 1.1799 70.2157 4.05177C70.2157 4.91675 70.2314 8.9912 69.6252 9.52799C69.3534 9.76874 68.4883 9.82218 68.4883 10.482C68.4883 12.2257 73.4492 11.8224 74.4655 11.5693C74.9472 11.4494 75.5415 11.138 75.5415 10.5542C75.5415 9.53732 74.6746 9.9788 74.3372 9.30675C73.9514 8.53808 74.188 5.86 74.2464 4.77463C74.308 3.62857 74.0333 2.9714 74.534 2.53448C75.509 2.76258 75.349 4.4853 76.8371 4.4853C78.0494 4.4853 78.0606 3.36383 78.0606 2.67907C78.0606 2.26497 77.9457 2.1624 77.9167 1.81208C79.022 2.07056 78.8522 3.88427 78.8522 5.28011C78.8522 6.36255 78.9781 9.38248 78.1464 9.99028C77.8177 10.2305 77.3409 10.299 77.3409 10.8433C77.3409 11.6516 77.9561 11.7139 78.8507 11.7121C79.6716 11.7104 80.3408 11.6381 81.2273 11.6381C82.8443 11.6381 84.2343 11.6 85.829 11.7149C86.4546 11.76 86.6928 11.9271 87.4888 11.9271C87.8614 11.9271 87.9504 11.703 88.1174 11.4744C88.8136 10.5214 89.0001 9.72046 89.0001 8.5313C89.0001 7.86341 88.5831 7.66438 87.9925 7.66438C87.3518 7.66438 87.1067 8.62553 86.7167 8.98465C85.7905 9.83752 84.6523 9.68731 83.3863 9.68731C82.4247 9.68731 82.6486 7.51363 82.768 7.11587C82.9002 6.67502 83.0754 6.72514 83.5303 6.72514C84.5976 6.72514 83.7814 8.45912 84.8257 8.45912C86.14 8.45912 86.1212 6.38114 86.1212 5.35236C86.1212 4.47612 85.8768 3.25711 85.0416 3.25711C84.5217 3.25711 84.4081 3.24146 84.2198 4.16605C84.0437 5.03034 83.8357 4.99109 83.1704 4.99109C82.4758 4.99109 82.6666 4.3758 82.6666 3.18485C82.6666 2.05799 83.2279 2.17335 84.25 2.17335C87.091 2.17335 86.1215 3.76282 87.5607 3.76282C88.2409 3.76282 88.505 2.86645 88.4627 2.19957C88.2907 -0.507886 86.815 0.125603 85.6856 0.218756C85.2581 0.254074 84.8806 0.225233 84.5182 0.275126L80.649 0.297258C79.7397 0.296024 77.7346 -0.131648 77.4847 0.945089C77.3015 0.821939 77.2377 0.657918 77.0738 0.490504C76.9482 0.36211 76.7045 0.173722 76.5154 0.108483C75.9317 -0.0930144 75.5707 0.222689 74.9657 0.222689H69.4959C68.5119 0.222689 68.3884 -0.468481 67.2803 0.888411C66.879 1.37955 66.3291 2.38634 66.3291 3.25719L66.3292 3.25703Z" fill="#1A1A1A"/>
<path fill-rule="evenodd" clip-rule="evenodd" d="M53.0137 5.06332C52.2034 5.06332 52.3659 5.12548 52.3659 2.89589C52.3659 1.6148 53.5977 2.19863 53.7557 2.36774C54.0867 2.72246 54.4049 5.06332 53.0137 5.06332ZM47.256 1.0174C47.256 2.66748 48.4795 0.912143 48.4795 3.69062C48.4795 5.35767 48.5869 7.81242 48.2731 9.33565C48.047 10.433 47.256 9.63539 47.256 10.8434C47.256 11.6009 48.6138 11.7869 49.4129 11.7849C50.5932 11.7818 50.696 11.9827 52.295 11.7114C52.7207 11.6393 53.1707 11.568 53.3751 11.2782C54.1395 10.1943 52.6733 10.1624 52.5148 9.39349C52.3772 8.72707 52.5099 8.5952 52.5099 7.95339C52.5099 7.19112 52.1757 6.94181 53.0137 6.94181C54.2789 6.94181 54.0702 9.3439 55.0041 10.8683C55.8193 12.1991 58.5709 12.089 59.6491 11.5076C59.8559 11.396 59.9613 11.2517 60.1389 11.1322C61.4984 11.8545 62.1255 11.7825 63.7375 11.7825C64.7207 11.7825 66.4004 11.6123 66.4004 10.6988C66.4004 9.4386 65.3209 10.1767 65.3209 8.67579C65.3209 6.89338 65.2675 4.8188 65.4515 3.09924C65.5201 2.45827 65.43 2.44987 65.8816 2.15838C67.0694 1.39171 66.5586 0.222593 63.8814 0.222593C62.6855 0.222593 60.1389 0.0945075 60.1389 1.45078C60.1389 2.08805 60.8721 2.08982 61.1209 2.48804C61.5018 3.09777 61.3553 7.35098 61.2601 7.99511C61.1833 8.51493 61.2221 8.95617 61.028 9.35161C60.8326 9.7499 60.4174 9.70333 60.1388 10.1208C58.7259 9.79039 59.2964 9.28368 58.7279 7.63576C58.6369 7.37195 58.568 7.19814 58.423 7.00258C57.5502 5.82505 57.0315 6.41435 56.6122 5.7858C56.8705 5.39854 58.4835 5.1244 58.4835 3.18484C58.4835 2.20657 57.9547 1.28599 57.0929 0.823771C56.1995 0.344741 55.2855 0.222285 53.9492 0.222593L48.4459 0.333483C48.1196 0.386537 47.2559 0.509456 47.2559 1.01733L47.256 1.0174Z" fill="#1A1A1A"/>
<path fill-rule="evenodd" clip-rule="evenodd" d="M10.5505 1.37833C10.5505 1.92252 11.1064 2.0375 11.3425 2.17283C11.669 2.35999 11.7021 2.96857 11.7021 3.47359C11.7021 4.31829 11.8194 8.99384 11.4869 9.54328C11.1941 10.0272 10.4785 9.57975 10.4785 10.6986C10.4785 12.1334 15.3406 12.0125 16.3024 11.2707C17.3783 10.4407 15.8797 9.65394 15.8605 9.6308C15.5748 9.28657 15.5885 8.00085 15.5885 7.44725C15.5885 6.67889 16.886 6.72477 17.6038 6.72477C18.628 6.72477 18.7427 7.25856 18.5916 8.36676C18.5644 8.56764 18.5695 9.10157 18.5268 9.31317C18.433 9.77847 17.8079 9.6571 17.5593 10.2946C16.7736 12.3093 22.0217 11.8224 22.8522 11.56C23.6182 11.318 24.1345 10.4467 23.0675 9.83762C22.6781 9.61538 22.6862 9.44049 22.645 8.88905C22.6109 8.43192 22.6425 8.03231 22.5894 7.64435C22.509 7.05444 22.5498 2.90657 22.7612 2.43741C22.9008 2.12741 23.8653 1.96309 23.8653 1.30615C23.8653 -0.191006 19.5101 0.190398 18.5572 0.384724C17.6182 0.576197 17.6038 0.979193 17.6038 1.59518C17.6038 2.19119 18.6114 1.64414 18.6114 3.54592C18.6114 4.822 18.6073 4.70193 16.4523 4.70193C15.54 4.70193 15.7326 4.10106 15.7326 2.8957C15.7326 2.36978 15.9056 2.29575 16.2317 2.09626C17.3617 1.40463 16.9903 0.222477 14.4371 0.222477C13.2386 0.222477 10.5506 0.124851 10.5506 1.37841L10.5505 1.37833Z" fill="#1A1A1A"/>
<path fill-rule="evenodd" clip-rule="evenodd" d="M28.111 4.19622C28.111 3.78397 28.3242 3.18418 28.5292 2.95438C28.8057 2.64439 29.2856 2.48947 29.7613 2.60668C31.449 3.0224 32.6044 6.99784 32.0102 8.6163C31.544 9.88605 29.8409 9.6443 28.9021 7.52021C28.7993 7.28748 28.7391 7.0377 28.6359 6.77598C28.3526 6.05829 28.111 5.02982 28.111 4.19622ZM23.7207 5.49667C23.7207 6.77081 23.7555 7.65307 24.426 8.76243C24.6127 9.07158 24.7959 9.4152 25.034 9.66928C25.1955 9.84148 25.2228 9.88991 25.3639 10.0606C25.4956 10.22 25.6322 10.288 25.7892 10.4283C28.1224 12.5134 32.3293 12.5224 34.6779 10.4273C36.6889 8.63342 37.1009 5.77898 36.0491 3.30772C35.762 2.63297 35.2697 2.09133 34.7877 1.61176C32.649 -0.515805 28.134 -0.535624 25.6848 1.5439C25.1885 1.96525 24.7133 2.60545 24.3912 3.20747C24.1297 3.69622 23.7207 4.791 23.7207 5.49659V5.49667Z" fill="#1A1A1A"/>
<path fill-rule="evenodd" clip-rule="evenodd" d="M5.80074 8.89321C5.80074 9.21022 5.73902 9.35735 5.47107 9.50148C4.19884 10.1859 2.51088 8.93963 1.82751 7.82434C1.05916 6.57031 0.192988 7.15183 0.0593235 7.68183C-0.151422 8.51751 0.225386 10.2742 0.778239 10.8285C1.50921 11.5612 3.66672 12 5.153 12C10.9186 12 12.211 6.39056 8.46289 4.70355C7.8282 4.41784 7.20663 4.25798 6.5043 4.06875C6.17632 3.98038 5.87183 3.84936 5.55199 3.7242C4.52183 3.32121 4.86225 2.3185 5.7288 2.3185C7.65976 2.3185 7.99864 4.05248 9.11141 4.05248C9.80906 4.05248 10.1962 3.82384 10.3482 3.12164C10.5321 2.27162 9.71785 0.968472 9.09429 0.457132C8.58397 0.0385592 8.1247 0.367757 7.456 0.367757C6.70891 0.367757 6.26315 0.0787354 5.44075 0.0787354C4.35209 0.0787354 3.73666 0.0828224 2.69353 0.499776C1.67773 0.905856 0.77916 1.79351 0.426151 2.84765C-0.325854 5.09351 1.53923 6.93923 3.46511 7.69756L5.17549 8.29249C5.49326 8.41541 5.80066 8.48389 5.80066 8.89321H5.80074Z" fill="#1A1A1A"/>
<path fill-rule="evenodd" clip-rule="evenodd" d="M42.2179 5.64117C41.9197 5.64117 41.786 5.60639 41.786 5.06313C41.786 4.30086 41.5888 2.17322 42.146 2.17322C42.6187 2.17322 42.9952 2.27848 43.2296 2.74702C43.8317 3.95053 43.4465 5.64117 42.2179 5.64117ZM38.3314 0.294653C37.8587 0.294653 37.2944 0.263422 36.8679 0.41495C36.3227 0.60866 36.3882 1.01929 36.3882 1.37841C36.3882 1.72403 36.9567 1.83854 37.2239 1.98452C37.6256 2.20391 37.7059 2.39245 37.7899 2.93348C37.9108 3.71163 37.8693 5.11665 37.7753 5.80542C37.6576 6.66755 37.8113 7.86474 37.7051 8.69718C37.6232 9.33993 37.739 9.46801 37.2293 9.73675C36.8743 9.92406 36.5322 10.0398 36.5322 10.5541C36.5322 12.1833 40.6342 11.8777 41.7563 11.6801C42.221 11.5984 42.8149 11.4393 42.9812 10.9555C43.3875 9.77361 42.1389 10.1005 41.9585 9.22495C41.8043 8.47679 41.8626 8.27584 41.9433 7.59361L42.9376 7.66409C44.1463 7.66409 45.4038 7.32934 46.1349 6.82772C48.2237 5.39449 48.0095 1.97373 46.3362 0.928681C45.3276 0.298817 43.5125 0.00779042 42.1563 0.16063C41.5284 0.231343 40.3104 0.218002 39.5649 0.305526C39.0033 0.371535 38.9317 0.294499 38.3314 0.294499L38.3314 0.294653Z" fill="#1A1A1A"/>
</svg>
