<svg width="98" height="18" viewBox="0 0 98 18" fill="none" xmlns="http://www.w3.org/2000/svg">
<path d="M49.1659 10.9015C48.467 8.76839 47.7681 6.63523 47.0759 4.52278C45.8252 4.52278 44.6096 4.52278 43.3997 4.52278C42.7566 6.57297 42.1218 8.59668 41.487 10.6203C41.4616 10.6173 41.4361 10.6142 41.4106 10.6111C40.8711 8.57658 40.3317 6.54205 39.7937 4.5134C38.3388 4.5134 36.9183 4.5134 35.4647 4.5134C35.6973 5.30076 35.9225 6.06318 36.1476 6.8256C32.9026 2.6677 25.4667 3.37806 23.6725 8.68305C23.5529 6.78829 22.996 5.13615 21.0379 4.44743C18.8808 3.68872 17.06 4.30396 15.5539 6.13574C15.5539 4.03473 15.5539 2.02628 15.5539 0C14.0339 0.155741 12.5635 0.306328 11.06 0.460317C11.06 4.22552 11.06 7.93485 11.06 11.6441C10.7072 10.6432 10.0079 9.96299 9.08482 9.57184C8.01814 9.11987 6.89857 8.79344 5.80715 8.39795C5.47681 8.27829 5.13853 8.14821 4.84931 7.95495C4.44053 7.68171 4.50866 7.18913 4.96279 6.9968C5.13327 6.92455 5.24098 6.90733 5.51484 6.886C6.00546 6.84776 6.51123 6.94805 6.97577 7.09142C7.78994 7.34261 8.57781 7.67924 9.41053 7.99288C9.88455 7.11698 10.3827 6.19645 10.8837 5.27066C10.8226 5.21944 10.7888 5.18161 10.7472 5.15749C8.6981 3.9732 6.49917 3.4832 4.16512 3.92373C1.90528 4.35034 0.390229 5.88487 0.606473 8.44403C0.683055 9.35147 1.04288 10.1415 1.79952 10.6421C2.43527 11.0629 3.14203 11.3994 3.8558 11.6731C4.75025 12.016 5.68913 12.2417 6.59822 12.5491C6.9162 12.6567 7.19181 12.8672 7.12348 13.2823C7.05648 13.6892 6.74737 13.7895 6.40208 13.829C5.28458 13.9567 4.23593 13.6783 3.2249 13.2457C2.68429 13.0145 2.17079 12.7203 1.63616 12.4499C1.0874 13.3327 0.542774 14.209 0 15.0822C2.00402 16.6081 5.13265 17.3499 7.52752 16.8567C9.19418 16.5134 10.505 15.7207 11.0031 13.9623C11.0071 13.9482 11.0424 13.9431 11.0953 13.9194C11.0953 14.972 11.0953 16.0097 11.0953 17.0652C12.5945 17.0652 14.0618 17.0652 15.5625 17.0652C15.5625 16.9053 15.5625 16.7683 15.5625 16.6311C15.5625 14.5067 15.5508 12.3821 15.5731 10.258C15.5773 9.86332 15.6571 9.44495 15.8078 9.08152C16.1003 8.37538 16.7751 8.04349 17.6167 8.10039C18.303 8.14687 18.871 8.59111 19.0733 9.30127C19.1691 9.63821 19.218 9.99948 19.2201 10.3501C19.2333 12.4491 19.2267 14.548 19.2267 16.6471C19.2267 16.7832 19.2267 16.9194 19.2267 17.0656C20.7206 17.0656 22.1758 17.0656 23.6624 17.0656C23.6624 15.6807 23.6624 14.318 23.6624 12.8745C25.0789 16.5364 28.538 17.8068 31.5987 17.318C34.476 16.8585 37.1875 14.6206 37.4227 10.9354C38.0551 12.9886 38.6876 15.0416 39.3135 17.0737C40.6117 17.0737 41.8555 17.0737 43.1133 17.0737C43.8084 14.9205 44.5006 12.7765 45.2183 10.5533C45.6075 11.7878 45.9641 12.9336 46.3305 14.0762C46.6465 15.0614 46.9737 16.1037 47.2959 17.0869C47.881 15.191 48.4664 13.2348 49.0503 11.3385C49.0946 11.1947 49.1278 11.0475 49.166 10.9017L49.1659 10.9015ZM31.3765 13.4474C29.5328 14.1682 27.6933 12.8128 27.6989 10.7377C27.7024 9.42815 28.4072 8.36992 29.5039 8.02741C31.0449 7.54607 32.6519 8.50989 32.9704 10.1065C33.2665 11.5913 32.6113 12.9646 31.3765 13.4473V13.4474Z" fill="#222222"/>
<path d="M97.8379 4.51651C95.8951 4.51651 94.0214 4.51651 92.1366 4.51651C91.367 5.46395 90.5957 6.41365 89.8092 7.38211C89.0089 6.39509 88.2415 5.4489 87.4859 4.51724C84.9993 4.51724 82.5379 4.51724 80.038 4.51724C80.038 4.9859 80.038 5.43323 80.038 5.88757C79.9873 5.87623 79.9716 5.87757 79.9639 5.87036C79.8261 5.73997 79.6901 5.60783 79.5522 5.47765C78.3241 4.318 76.8601 3.93241 75.2294 4.25595C73.0064 4.69709 71.6908 6.1536 70.9895 8.23162C70.6457 9.24997 70.5677 10.3096 70.5555 11.3885C69.8495 9.09258 69.1436 6.79656 68.442 4.51486C67.1476 4.51486 65.8924 4.51486 64.6241 4.51486C63.9346 6.66009 63.2496 8.79151 62.5417 10.9938C62.4871 10.8573 62.4562 10.7921 62.4348 10.724C62.1297 9.76048 61.8299 8.79532 61.5208 7.83304C61.1705 6.74255 60.8123 5.59536 60.4575 4.5061C60.3806 4.75543 60.3039 5.00569 60.2271 5.25657C60.0555 5.81686 59.8838 6.38066 59.7122 6.94529C59.5943 7.33315 59.4764 7.72131 59.3586 8.10917C59.3173 8.24512 59.276 8.38077 59.2347 8.51651C59.1044 8.94488 58.9741 9.37252 58.8438 9.798C58.767 10.0489 58.6901 10.2991 58.6133 10.5484C58.9989 11.7637 59.3852 12.9788 59.7697 14.1943C60.0739 15.1562 60.3759 16.1188 60.6765 17.0733C61.913 17.0733 63.1171 17.0733 64.336 17.0733C64.9846 15.0051 65.6304 12.9461 66.2988 10.8151C66.8645 12.9476 67.4112 15.0078 67.9565 17.0636C69.4127 17.0636 70.8395 17.0636 72.2918 17.0636C72.0868 16.3832 71.8907 15.7322 71.6946 15.0812C71.6709 15.0259 71.6472 14.9706 71.6235 14.9153C71.6352 14.906 71.647 14.8966 71.6587 14.8873C71.6973 14.9326 71.7359 14.9778 71.7746 15.0231C71.8392 15.1003 71.9082 15.1741 71.9676 15.2551C73.725 17.6471 77.5801 18.3961 79.8453 15.6756C79.8933 15.6179 79.9621 15.5776 80.0763 15.4839C80.0763 16.0608 80.0763 16.5627 80.0763 17.0759C82.5728 17.0759 85.0376 17.0759 87.52 17.0759C88.2738 16.1468 89.0331 15.211 89.8092 14.2544C90.5904 15.2155 91.3576 16.1593 92.091 17.0615C94.0133 17.0615 95.8728 17.0615 97.7898 17.0615C96.0568 14.9504 94.36 12.8834 92.6648 10.8183C94.39 8.71647 96.0947 6.63968 97.8376 4.51631L97.8379 4.51651ZM79.7003 12.5676C79.0225 13.475 78.0998 13.8474 76.9921 13.5854C75.8749 13.3212 75.2248 12.5555 74.9598 11.4551C74.9068 11.2348 74.894 11.0048 74.8627 10.7791C74.8772 9.08938 76.1151 7.81181 77.7217 7.87438C78.5274 7.90571 79.1811 8.27842 79.6685 8.91499C80.4734 9.96642 80.4935 11.5058 79.7004 12.5676H79.7003ZM83.9078 14.3513C83.9078 11.9942 83.9078 9.68648 83.9078 7.32315C85.0214 8.51208 86.1011 9.66462 87.2027 10.8406C86.0947 12.021 85.0197 13.1667 83.9078 14.3513Z" fill="#222222"/>
<path d="M51.1789 4.51758C50.9861 5.13353 50.7986 5.73722 50.6083 6.33978C50.1282 7.8606 49.6469 9.38101 49.166 10.9016C49.1277 11.0475 49.0945 11.1947 49.0503 11.3384C48.4664 13.2347 47.8809 15.1909 47.2959 17.0868C47.4242 17.0868 47.565 17.0826 47.6998 17.0835C48.5003 17.0889 49.3009 17.0861 50.1016 17.0861C50.5821 17.0861 51.0627 17.0861 51.5601 17.0861C52.8656 12.883 54.1609 8.7129 55.464 4.51758C54.0063 4.51758 52.6008 4.51758 51.179 4.51758H51.1789Z" fill="#222222"/>
<path d="M59.358 8.10921C59.4758 7.72135 59.5937 7.33318 59.7116 6.94533C59.8832 6.3807 60.0548 5.8169 60.2264 5.2566C60.3032 5.00573 60.38 4.75537 60.4569 4.50614C60.3201 4.50614 60.193 4.50366 60.0609 4.50305C58.9425 4.498 57.824 4.50026 56.7056 4.50026C56.532 4.50026 56.3584 4.50026 56.1754 4.50026C54.8684 8.70867 53.5742 12.8757 52.2715 17.0702C53.734 17.0702 55.1289 17.0702 56.5535 17.0702C56.8372 16.1583 57.1159 15.2507 57.4022 14.3455C57.8028 13.0789 58.2089 11.814 58.6126 10.5485C58.6894 10.2992 58.7663 10.049 58.8431 9.79814C58.9734 9.37266 59.1037 8.94501 59.2341 8.51665C59.2754 8.3809 59.3166 8.24526 59.358 8.10931V8.10921Z" fill="#222222"/>
</svg>
