<svg width="127" height="26" viewBox="0 0 127 26" fill="none" xmlns="http://www.w3.org/2000/svg">
<path fill-rule="evenodd" clip-rule="evenodd" d="M120.86 16.5141C121.062 15.5452 121.773 14.9164 122.944 14.925C124.124 14.9338 124.677 15.5636 124.916 16.5362L120.86 16.514V16.5141ZM126.549 19.8604C126.294 19.5676 125.39 19.0673 124.949 18.8967C124.297 19.4171 123.856 19.7926 122.597 19.612C121.707 19.4844 121.042 18.9971 120.915 18.1449L126.917 18.1384C127.85 12.5753 120.645 11.3508 119.006 15.638C118.089 18.0345 119.309 20.1919 120.839 21.0092C122.578 21.9379 125.114 21.7556 126.549 19.8604H126.549Z" fill="#1A1A1A"/>
<path fill-rule="evenodd" clip-rule="evenodd" d="M18.3741 10.7378C18.3491 11.5839 19.3833 13.0983 18.3877 15.9293C16.6252 20.9413 10.0341 22.1576 6.55914 18.7137C4.30563 16.4802 3.41362 12.7686 5.40755 9.63616C6.67552 7.64396 8.75005 6.32771 11.2367 6.21694C12.4743 6.16177 12.9831 6.43364 14.0118 6.58719C12.4417 5.419 8.83529 5.32859 6.75731 6.01285C-0.573697 8.4267 -2.10093 17.4471 2.96826 22.3051C6.19978 25.402 11.555 26.1846 15.6106 23.0824C18.8766 20.5841 20.3406 16.3412 18.9927 12.2098C18.8742 11.8468 18.3923 10.8764 18.3743 10.7376L18.3741 10.7378Z" fill="#1A1A1A"/>
<path fill-rule="evenodd" clip-rule="evenodd" d="M54.0746 17.6636C53.4576 14.547 58.0514 14.0783 58.4814 16.7462C58.9743 19.8057 54.5851 20.242 54.0746 17.6636ZM58.5097 20.1433C58.5275 21.4667 58.389 22.4288 57.2398 22.7729C56.658 22.9471 55.906 22.9099 55.3799 22.7153C54.8135 22.5058 54.6292 22.2087 54.3134 21.7996C53.9928 21.934 53.7803 22.0753 53.4686 22.253C53.3084 22.3445 53.2236 22.3839 53.0394 22.4913L52.6965 22.7255C52.683 22.7368 52.6564 22.7631 52.6456 22.7726C52.6349 22.782 52.6115 22.8039 52.5957 22.8208C53.1088 23.9853 54.6313 24.6473 55.9489 24.7169C57.7753 24.8133 58.9337 24.2299 59.8116 23.2466C60.7479 22.198 60.5312 20.2534 60.5312 18.6184C60.5312 16.9545 60.6357 14.9193 60.5135 13.3009L58.5335 13.2883L58.5015 14.1992C58.015 13.7645 57.6493 13.3147 56.6686 13.1314C52.0502 12.2681 50.1012 18.8629 54.1797 20.8638C56.7288 22.1144 58.2125 20.3105 58.5096 20.143L58.5097 20.1433Z" fill="#1A1A1A"/>
<path fill-rule="evenodd" clip-rule="evenodd" d="M36.2681 15.1451C39.3277 14.16 40.2731 18.7482 37.6045 19.4722C34.6472 20.2745 33.6094 16.0013 36.2681 15.1451ZM39.1859 20.4544L39.1896 21.3005L41.2508 21.2985L41.2525 13.2944L39.2135 13.2878L39.1761 14.1677C37.5014 12.0593 32.7694 12.954 32.6808 17.1853C32.6419 19.0452 33.6522 20.4488 34.7801 21.0625C35.8531 21.6464 37.2321 21.7035 38.3538 21.0839C38.7711 20.8533 38.8647 20.5894 39.1858 20.4544H39.1859Z" fill="#1A1A1A"/>
<path fill-rule="evenodd" clip-rule="evenodd" d="M64.1427 16.5366C64.6017 14.4025 67.7524 14.3292 68.1975 16.5413L64.1427 16.5366ZM69.828 19.8602C69.6147 19.5835 68.4257 18.954 68.1391 18.8791C67.2812 20.166 64.4555 19.824 64.1861 18.155L70.192 18.1425C71.1327 12.6776 64.0354 11.2851 62.302 15.6114C61.3431 18.0044 62.5773 20.161 64.0832 20.992C66.1924 22.1558 68.8514 21.3782 69.8281 19.8602H69.828Z" fill="#1A1A1A"/>
<path fill-rule="evenodd" clip-rule="evenodd" d="M92.3634 16.5141C92.5654 15.5452 93.2762 14.9164 94.4469 14.925C95.6271 14.9338 96.1799 15.5636 96.4193 16.5362L92.3634 16.514V16.5141ZM98.0523 19.8604C97.7965 19.5676 96.8926 19.0673 96.452 18.8967C95.8 19.4171 95.3593 19.7926 94.1003 19.612C93.2096 19.4844 92.5453 18.9971 92.4181 18.1449L98.4198 18.1384C99.3529 12.5753 92.1481 11.3508 90.5084 15.638C89.5919 18.0345 90.8115 20.1919 92.3417 21.0092C94.0806 21.9379 96.6169 21.7556 98.0524 19.8604H98.0523Z" fill="#1A1A1A"/>
<path fill-rule="evenodd" clip-rule="evenodd" d="M45.1988 14.0953L45.1817 13.2884L43.1505 13.2902L43.1289 21.2923L45.1918 21.3017C45.2086 19.9621 45.193 18.6176 45.1938 17.2784C45.1947 16.0075 45.5556 15.0354 46.8743 14.9938C48.3535 14.9472 48.5506 15.9362 48.5472 17.2811C48.5439 18.6178 48.5328 19.9651 48.5505 21.3008L50.6107 21.2987C50.6478 18.0341 51.4195 13.2742 47.8298 13.0777C47.2675 13.047 46.72 13.1193 46.2492 13.3169C45.6212 13.5804 45.5831 13.8146 45.1988 14.0955V14.0953Z" fill="#1A1A1A"/>
<path fill-rule="evenodd" clip-rule="evenodd" d="M83.4882 14.1009L83.4371 13.2961L81.3982 13.2925L81.3848 21.2734L83.4492 21.3011C83.4603 19.9873 83.4526 18.6801 83.4501 17.3768C83.4478 16.0284 83.737 15.059 85.0884 14.9945C86.5846 14.923 86.8066 15.8987 86.8029 17.2814C86.7994 18.6143 86.7924 19.9533 86.8049 21.2856L88.8676 21.2925C88.8792 19.582 89.1461 15.6293 88.4007 14.4435C87.5784 13.1353 85.9168 12.7472 84.5357 13.2948C83.946 13.5287 83.8826 13.7599 83.4881 14.1009H83.4882Z" fill="#1A1A1A"/>
<path fill-rule="evenodd" clip-rule="evenodd" d="M23.7063 11.8375L23.7427 12.2566C24.3897 12.108 25.9907 12.1737 26.7132 12.2114L26.7198 21.2869L28.928 21.2968L28.9301 12.2241L31.9345 12.1942L31.9706 10.0985C29.9466 10.0031 25.9363 10.0827 23.7061 10.0835V11.8376L23.7063 11.8375Z" fill="#1A1A1A"/>
<path fill-rule="evenodd" clip-rule="evenodd" d="M7.16379 15.3116C7.0125 13.1587 7.72919 11.868 9.11893 11.1491C12.6542 9.3199 16.0905 13.3707 14.1473 16.4628C13.2863 17.8327 11.9742 18.4487 9.80534 18.1628C10.7781 18.7229 12.2655 18.769 13.478 18.3749C14.6487 17.9943 15.4309 17.2748 16.0025 16.5036C17.5331 14.439 17.0398 11.6923 15.6007 10.0551C14.3144 8.59201 11.4217 7.78039 9.12583 9.24588C6.42652 10.969 6.44323 14.4643 7.16379 15.3115V15.3116Z" fill="#1A1A1A"/>
<path fill-rule="evenodd" clip-rule="evenodd" d="M102.27 21.2944L108.754 21.2987L108.764 19.2098L104.495 19.1836L104.477 10.0967L102.32 10.0839C102.165 10.888 102.255 19.759 102.27 21.2943V21.2944Z" fill="#1A1A1A"/>
<path fill-rule="evenodd" clip-rule="evenodd" d="M114.415 13.2718L113.28 13.2941L113.264 15.3178L114.4 15.2755L114.416 21.2823L116.48 21.294L116.484 15.279L118.158 15.285L118.177 13.2887L116.482 13.2873C116.528 12.0877 116.967 11.8388 118.162 11.8416L118.174 9.85592C115.678 9.80204 114.436 10.8123 114.415 13.2719L114.415 13.2718Z" fill="#1A1A1A"/>
<path fill-rule="evenodd" clip-rule="evenodd" d="M73.8233 14.4978L73.7775 13.3069L71.735 13.2871L71.7207 21.2846L73.786 21.2962C73.8112 17.8259 73.0399 15.4125 76.2228 15.4209V13.1379C74.8351 13.1741 74.439 13.6297 73.8234 14.4979L73.8233 14.4978Z" fill="#1A1A1A"/>
<path fill-rule="evenodd" clip-rule="evenodd" d="M12.6155 5.11902C13.0225 4.65125 13.1434 4.33994 13.7232 3.81388C14.1019 3.47024 14.666 3.046 15.1483 2.79062C14.806 3.25333 13.2306 5.08379 13.1509 5.50059C16.9385 5.74531 16.3862 3.95234 17.9195 1.51338C18.4417 0.682794 18.7098 0.633226 19.3295 0.0094232C18.3171 -0.0940231 15.3362 0.680316 14.4999 1.05445C12.8417 1.79624 12.328 3.43113 12.6156 5.11892L12.6155 5.11902Z" fill="#1A1A1A"/>
<path fill-rule="evenodd" clip-rule="evenodd" d="M77.4248 21.2921L79.4858 21.2996L79.4902 13.2887L77.446 13.2902L77.4248 21.2921Z" fill="#1A1A1A"/>
<path fill-rule="evenodd" clip-rule="evenodd" d="M109.914 21.3436L111.977 21.2865C111.985 20.0059 111.816 13.9866 112.043 13.3248L109.933 13.2849L109.914 21.3436Z" fill="#1A1A1A"/>
<path fill-rule="evenodd" clip-rule="evenodd" d="M10.443 12.835C8.23303 13.5562 9.18894 16.8501 11.4983 16.2082C12.2953 15.9866 12.9521 15.021 12.6401 13.9721C12.4092 13.1967 11.4767 12.4976 10.443 12.835Z" fill="#1A1A1A"/>
<path fill-rule="evenodd" clip-rule="evenodd" d="M11.0462 3.90132C10.6993 3.27774 10.0975 2.81848 9.69014 2.19705C10.613 2.60297 10.8151 3.10166 11.4332 3.63484C11.6006 2.21472 11.0986 1.38715 10.083 0.960647C9.26041 0.615179 7.63425 0.293849 6.62598 0.250854C6.6416 0.272729 6.66897 0.275638 6.67813 0.312168L7.60096 1.34211C8.65687 2.99692 8.44825 4.14432 11.046 3.90143L11.0462 3.90132Z" fill="#1A1A1A"/>
<path fill-rule="evenodd" clip-rule="evenodd" d="M77.9515 9.9247C77.7003 10.0487 77.8422 9.9136 77.5802 10.1595C77.1388 10.574 77.0783 11.1389 77.3368 11.6544C77.5641 12.1077 78.3043 12.5662 79.0281 12.1838C80.4644 11.4247 79.4385 9.19077 77.9515 9.92481V9.9247Z" fill="#1A1A1A"/>
<path fill-rule="evenodd" clip-rule="evenodd" d="M110.437 9.93329C109.785 10.2438 109.498 10.839 109.765 11.5126C109.981 12.0574 110.66 12.5697 111.448 12.2212C112.922 11.5685 112.024 9.17673 110.437 9.93329H110.437Z" fill="#1A1A1A"/>
</svg>
